' Copyright (c) 2025-2026 Huawei Device Co., Ltd.
' Licensed under the Apache License, Version 2.0 (the "License");
' you may not use this file except in compliance with the License.
' You may obtain a copy of the License at
'
' http://www.apache.org/licenses/LICENSE-2.0
'
' Unless required by applicable law or agreed to in writing, software
' distributed under the License is distributed on an "AS IS" BASIS,
' WITHOUT WARRANTIES OR CONDITIONS OF ANY KIND, either express or implied.
' See the License for the specific language governing permissions and
' limitations under the License.

@startuml
'skinparam handwritten true

[*] --> Active

state Active {
  [*] -> Unlocked
  Unlocked --> Locked : Acquire lock
  Locked --> Unlocked : Release lock
  ||
  [*] -> UnlockedR
  UnlockedR --> LockedR : Acquire lock
  LockedR --> UnlockedR : Release lock
  LockedR --> LockedR : Acquire lock from same coroutine
  LockedR --> LockedR : Release inner lock from same coroutine
}

@enduml
